HIERARCHY
ROOT Hips
{
	OFFSET 0.000000 0.000000 0.000000
	CHANNELS 6 Xposition Yposition Zposition Zrotation Yrotation Xrotation 
	JOINT LHipJoint
	{
		OFFSET 0.000000 0.000000 0.000000
		CHANNELS 3 Zrotation Yrotation Xrotation
		JOINT LeftUpLeg
		{
			OFFSET 1.363060 -1.794630 0.839290
			CHANNELS 3 Zrotation Yrotation Xrotation
			JOINT LeftLeg
			{
				OFFSET 2.448110 -6.726130 0.000000
				CHANNELS 3 Zrotation Yrotation Xrotation
				JOINT LeftFoot
				{
					OFFSET 2.562200 -7.039590 0.000000
					CHANNELS 3 Zrotation Yrotation Xrotation
					JOINT LeftToeBase
					{
						OFFSET 0.157640 -0.433110 2.322550
						CHANNELS 3 Zrotation Yrotation Xrotation
						End Site
						{
							OFFSET 0.000000 0.000000 0.000000
						}
					}
				}
			}
		}
	}
	JOINT RHipJoint
	{
		OFFSET 0.000000 0.000000 0.000000
		CHANNELS 3 Zrotation Yrotation Xrotation
		JOINT RightUpLeg
		{
			OFFSET -1.305520 -1.794630 0.839290
			CHANNELS 3 Zrotation Yrotation Xrotation
			JOINT RightLeg
			{
				OFFSET -2.542530 -6.985550 0.000000
				CHANNELS 3 Zrotation Yrotation Xrotation
				JOINT RightFoot
				{
					OFFSET -2.568260 -7.056230 0.000000
					CHANNELS 3 Zrotation Yrotation Xrotation
					JOINT RightToeBase
					{
						OFFSET -0.164730 -0.452590 2.363150
						CHANNELS 3 Zrotation Yrotation Xrotation
						End Site
						{
							OFFSET 0.000000 0.000000 0.000000
						}
					}
				}
			}
		}
	}
	JOINT LowerBack
	{
		OFFSET 0.000000 0.000000 0.000000
		CHANNELS 3 Zrotation Yrotation Xrotation
		JOINT Spine
		{
			OFFSET 0.028270 2.035590 -0.193380
			CHANNELS 3 Zrotation Yrotation Xrotation
			JOINT Spine1
			{
				OFFSET 0.056720 2.048850 -0.042750
				CHANNELS 3 Zrotation Yrotation Xrotation
				JOINT Neck
				{
					OFFSET 0.000000 0.000000 0.000000
					CHANNELS 3 Zrotation Yrotation Xrotation
					JOINT Neck1
					{
						OFFSET -0.054170 1.746240 0.172020
						CHANNELS 3 Zrotation Yrotation Xrotation
						JOINT Head
						{
							OFFSET 0.104070 1.761360 -0.123970
							CHANNELS 3 Zrotation Yrotation Xrotation
							End Site
							{
								OFFSET 0.000000 0.000000 0.000000
							}
						}
					}
				}
				JOINT LeftShoulder
				{
					OFFSET 0.000000 0.000000 0.000000
					CHANNELS 3 Zrotation Yrotation Xrotation
					JOINT LeftArm
					{
						OFFSET 3.362410 1.200890 -0.311210
						CHANNELS 3 Zrotation Yrotation Xrotation
						JOINT LeftForeArm
						{
							OFFSET 4.983000 -0.000000 -0.000000
							CHANNELS 3 Zrotation Yrotation Xrotation
							JOINT LeftHand
							{
								OFFSET 3.483560 -0.000000 -0.000000
								CHANNELS 3 Zrotation Yrotation Xrotation
								JOINT LeftFingerBase
								{
									OFFSET 0.000000 0.000000 0.000000
									CHANNELS 3 Zrotation Yrotation Xrotation
									JOINT LeftHandIndex1
									{
										OFFSET 0.715260 -0.000000 -0.000000
										CHANNELS 3 Zrotation Yrotation Xrotation
										End Site
										{
											OFFSET 0.000000 0.000000 0.000000
										}
									}
								}
								JOINT LThumb
								{
									OFFSET 0.000000 0.000000 0.000000
									CHANNELS 3 Zrotation Yrotation Xrotation
									End Site
									{
										OFFSET 0.000000 0.000000 0.000000
									}
								}
							}
						}
					}
				}
				JOINT RightShoulder
				{
					OFFSET 0.000000 0.000000 0.000000
					CHANNELS 3 Zrotation Yrotation Xrotation
					JOINT RightArm
					{
						OFFSET -3.136600 1.374050 -0.404650
						CHANNELS 3 Zrotation Yrotation Xrotation
						JOINT RightForeArm
						{
							OFFSET -5.241900 -0.000000 -0.000000
							CHANNELS 3 Zrotation Yrotation Xrotation
							JOINT RightHand
							{
								OFFSET -3.444170 -0.000000 -0.000000
								CHANNELS 3 Zrotation Yrotation Xrotation
								JOINT RightFingerBase
								{
									OFFSET 0.000000 0.000000 0.000000
									CHANNELS 3 Zrotation Yrotation Xrotation
									JOINT RightHandIndex1
									{
										OFFSET -0.622530 -0.000000 -0.000000
										CHANNELS 3 Zrotation Yrotation Xrotation
										End Site
										{
											OFFSET 0.000000 0.000000 0.000000
										}
									}
								}
								JOINT RThumb
								{
									OFFSET 0.000000 0.000000 0.000000
									CHANNELS 3 Zrotation Yrotation Xrotation
									End Site
									{
										OFFSET 0.000000 0.000000 0.000000
									}
								}
							}
						}
					}
				}
			}
		}
	}
}
MOTION
Frames: 5
Frame Time: 0.008333
0.278297 18.510017 9.573317 -12.865133 -31.971475 24.518656 5.052091 4.153426 -0.791103 -21.361588 -39.069789 18.827481 -4.711156 -2.858618 -2.775108 9.746607 33.388492 -74.163629 5.320100 13.735400 42.187700 0.047379 -3.761944 -0.968389 19.192551 31.119159 -10.548526 2.849986 -2.154912 5.799540 0.662473 -6.586583 10.125656 -0.171500 2.667600 -7.354800 -4.225955 0.573222 6.354572 29.116901 6.449211 -22.292453 -11.411616 -2.680003 -9.513877 -18.612933 -8.471410 -10.781560 18.380845 -12.014212 14.423832 3.774500 -5.046200 5.356400 -6.848415 -7.392987 1.882119 -89.806227 -3.731534 55.761008 148.666616 -37.629777 -110.777043 -0.761388 -0.433822 -10.796202 6.160473 -23.166760 -2.725800 -7.125000 0.000000 0.000000 -13.709900 7.511500 12.162700 8.289157 8.303089 4.558738 79.628233 18.022709 66.184585 -148.719745 37.597021 -110.152498 -0.851595 -0.293672 12.114009 27.714923 -28.917263 -14.369800 7.125000 0.000000 0.000000 56.028200 -49.914400 -9.460200 
0.274412 18.500250 9.551579 -13.248303 -29.347785 24.155781 5.314750 4.156249 -0.790517 -20.465617 -39.591188 18.851401 -4.751039 -2.896019 -2.747472 8.037947 34.461423 -71.973610 5.016200 13.402000 40.892600 0.103341 -3.865475 -0.862141 20.336777 30.592286 -9.692077 2.910598 -2.047714 5.505124 1.329164 -8.461579 9.122835 -0.168200 2.642100 -7.284000 -3.192149 0.883117 6.715410 29.068389 6.817220 -22.310190 -11.944639 -2.549663 -9.744009 -17.656638 -8.129546 -10.827482 17.521358 -11.525116 14.533390 3.522500 -4.811900 5.282400 -6.846831 -7.324957 1.915896 -89.566249 -3.534729 55.807729 148.773525 -37.504662 -110.851475 -0.761018 -0.361377 -11.163522 4.543686 -23.544501 -2.126800 -7.125000 0.000000 0.000000 -14.707100 7.198400 13.202100 8.228151 8.341730 4.607681 79.631868 17.986220 65.722931 -148.769038 37.553941 -110.202680 -0.803633 -0.321877 13.221278 29.446536 -27.664846 -14.721200 7.125000 0.000000 0.000000 56.013300 -48.740600 -7.338000 
0.239756 18.510752 9.527215 -11.502717 -27.105389 23.221902 5.391744 4.138775 -0.933361 -21.301886 -40.486176 18.431638 -4.747865 -2.804606 -2.497165 6.324674 35.531395 -69.713718 4.703300 13.041700 39.524700 0.104494 -3.774057 -0.933714 18.830327 30.759080 -9.312471 2.966026 -1.987291 5.197187 2.441095 -11.594077 7.938670 -0.147800 2.477400 -6.826900 -4.235599 0.999220 6.613955 27.911717 6.846287 -22.722343 -10.942203 -2.268360 -9.529151 -16.317449 -7.666048 -12.046051 16.037122 -10.603616 15.317306 3.142400 -4.329200 5.428800 -6.949132 -7.245058 2.008150 -89.460500 -3.666785 55.423583 148.890891 -37.440445 -110.921108 -0.764332 -0.335152 -11.585999 3.515638 -23.713420 -1.731700 -7.125000 0.000000 0.000000 -15.330600 7.079200 13.842200 8.391029 8.357786 4.769949 79.170970 18.259492 66.267393 -148.662114 37.601081 -110.129175 -0.861863 -0.279604 12.308534 27.286090 -28.831176 -14.099100 7.125000 0.000000 0.000000 55.667200 -49.937300 -9.392000 
0.209721 18.514323 9.501590 -10.679157 -23.659413 22.394491 5.685052 4.131528 -1.076726 -21.177274 -41.162012 18.015266 -4.740316 -2.752358 -2.386164 3.541342 37.274193 -66.157068 4.164000 12.375400 37.073400 0.136127 -3.797817 -0.895439 18.678787 30.411689 -8.411028 3.050144 -1.857340 4.785375 3.636567 -14.778657 6.329315 -0.119800 2.231100 -6.144800 -4.362200 1.317663 6.804135 27.226715 7.194206 -23.162130 -10.565882 -1.987741 -9.525271 -14.656655 -6.900620 -12.750506 14.307506 -9.366967 15.876084 2.710700 -3.725300 5.470400 -7.016963 -7.161038 2.104194 -89.429524 -3.622446 55.359722 149.019214 -37.330242 -110.997063 -0.764466 -0.332414 -12.001354 3.169377 -23.703975 -1.593300 -7.125000 0.000000 0.000000 -15.540000 7.104200 14.038700 8.393904 8.409752 4.911597 78.858219 18.197100 66.411367 -148.570213 37.641071 -110.091534 -0.858585 -0.270256 11.841775 26.945430 -28.759962 -13.885900 7.125000 0.000000 0.000000 55.383000 -49.963000 -9.351900 
0.187982 18.511592 9.474496 -10.953468 -19.067198 21.552452 6.193741 4.143329 -1.213274 -19.942997 -41.610067 17.679655 -4.688412 -2.767119 -2.521408 -0.219219 39.496978 -61.336816 3.406000 11.324900 33.383700 0.239356 -3.955884 -0.705117 20.067723 29.668046 -6.981312 3.160626 -1.681583 4.346396 4.844651 -17.935200 4.235561 -0.089700 1.932000 -5.317700 -3.548694 1.858889 7.278786 27.498344 7.921072 -23.403760 -11.035744 -1.752126 -9.779080 -12.987285 -5.855940 -12.793377 12.652566 -7.858843 16.083428 2.303100 -3.010600 5.402200 -7.038813 -7.089155 2.174179 -89.492298 -3.457771 55.356830 149.051598 -37.246732 -111.034572 -0.758791 -0.302448 -12.058044 2.531450 -23.697156 -1.334500 -7.125000 0.000000 0.000000 -15.932600 7.126700 14.416300 8.157382 8.513979 5.010689 78.771764 17.833654 66.312840 -148.363165 37.808610 -109.969134 -0.894943 -0.228816 11.932470 25.795963 -28.930992 -13.352400 7.125000 0.000000 0.000000 54.776400 -50.300400 -9.747300 
